# xmcd CD database file
#
# Track frame offsets:
#	150
#	20655
#	43717
#	66430
#
# Disc length: 1173 seconds
#
# Revision: 0
# Processed by: cddbd v1.5PL3 Copyright (c) Steve Scherf et al.
# Submitted via: CDex 1.50
#
DISCID=34049304
DTITLE=arp - Rebone
DYEAR=2003
DGENRE=JPop
TTITLE0=Reborn
TTITLE1=沈黙と青い空
TTITLE2=Rebone - post Production Miysuo Suzuki Mix
TTITLE3=Good Night
EXTD=YEAR: 2003
EXTT0=
EXTT1=
EXTT2=
EXTT3=
PLAYORDER=
